<svg xmlns="http://www.w3.org/2000/svg" fill="none" viewBox="0 0 24 24"><path fill="currentColor" d="m20.9 15.3-.2-.2a9.4 9.4 0 0 1-9.8-2 9.3 9.3 0 0 1-2-9.7c0-.2-.1-.3-.3-.2a9.6 9.6 0 0 0-4.5 4 9.3 9.3 0 0 0 13.5 12.2c1.4-1 2.5-2.4 3.2-4Z" opacity=".1"/><path stroke="currentColor" stroke-linecap="round" stroke-linejoin="round" stroke-width="2" d="m20.9 15.3-.2-.2v0a9.4 9.4 0 0 1-9.8-2 9.3 9.3 0 0 1-2-9.7v0c0-.2-.1-.3-.3-.2 0 0 0 0 0 0a9.6 9.6 0 0 0-4.5 4 9.3 9.3 0 0 0 13.5 12.2c1.4-1 2.5-2.4 3.2-4 0 0 0 0 0 0Z"/></svg>
