<svg xmlns="http://www.w3.org/2000/svg" fill="none" viewBox="0 0 24 24"><path fill="currentColor" d="M3 7c0-1.9 0-2.8.6-3.4C4.2 3 5 3 7 3h10c1.9 0 2.8 0 3.4.6.6.6.6 1.5.6 3.4v6c0 1.9 0 2.8-.6 3.4-.6.6-1.5.6-3.4.6H7c-1.9 0-2.8 0-3.4-.6C3 15.8 3 15 3 13V7Z" opacity=".1"/><path stroke="currentColor" stroke-linejoin="round" stroke-width="2" d="M3 7c0-1.9 0-2.8.6-3.4C4.2 3 5 3 7 3h10c1.9 0 2.8 0 3.4.6.6.6.6 1.5.6 3.4v6c0 1.9 0 2.8-.6 3.4-.6.6-1.5.6-3.4.6H7c-1.9 0-2.8 0-3.4-.6C3 15.8 3 15 3 13V7Z"/><path stroke="currentColor" stroke-linecap="round" stroke-linejoin="round" stroke-width="2" d="M7 21h10"/><path stroke="currentColor" stroke-linecap="round" stroke-width="2" d="M12 17v4"/></svg>
