<svg xmlns="http://www.w3.org/2000/svg" viewBox="0 0 512 512"><path fill="currentColor" d="M480 174c0-105-68-135-68-135-35-16-94-22-155-23h-2c-61 1-120 7-155 23 0 0-68 30-68 135v82c3 102 19 202 113 227 44 12 81 14 111 13 55-3 85-20 85-20l-2-39s-39 12-82 10c-44-1-89-4-96-57a108 108 0 0 1-1-15 559 559 0 0 0 96 13c33 1 64-2 95-6 60-7 113-44 119-78 11-54 10-130 10-130Zm-81 134h-50V185c0-25-10-39-32-39-24 0-36 16-36 47v67h-50v-67c0-31-12-47-36-47-22 0-32 14-32 39v123h-50V182q0-39 19-62c14-15 32-23 54-23 25 0 45 10 58 30l12 21 12-21c13-20 33-30 58-30 22 0 40 8 54 23q20 23 19 62Z"/></svg>
