<svg xmlns="http://www.w3.org/2000/svg" width="36" height="36" class="CLASSES" viewBox="0 0 483 483"><path d="M53 173a358 358 0 0 0 88-15l1-1a364 364 0 0 1 26-16h-31c-57 0-97 6-112 16a36 36 0 0 0-2 6c2 4 5 6 9 7zM16 451c17-54 47-80 49-81l5-5 3 7c10 32 25 61 35 78 3-184 69-259 103-286a48 48 0 0 1-32-17 375 375 0 0 0-34 20A297 297 0 0 0 16 451m325-294 1 1 10 2c27 7 56 13 78 13 7 0 15-1 21-3 4-1 8-3 9-7a28 28 0 0 0-1-6c-16-10-55-16-113-16a959 959 0 0 0-31 0 381 381 0 0 1 26 16m-41-12v1l-3 4-4 3c-6 5-13 9-21 10 33 27 100 102 104 287 9-17 25-46 35-78l2-7 5 5c2 1 32 27 49 81a297 297 0 0 0-167-306m-279 3 4-2 9-4c22-7 56-11 103-11h4a1028 1028 0 0 1 31 1h-1V84c0-6 1-12 4-17v-1l1-2h-1a307 307 0 0 0-42-19c-27-10-50-13-66-13-18 0-32 3-43 8-10 4-17 9-21 14-3 4-4 8-2 11l8 27 11 52z"/><path d="M459 40c-11-5-25-8-43-8a201 201 0 0 0-93 24l-15 8-5 3c3 5 4 11 4 17v44l-1 4a324 324 0 0 1 36-1h4a348 348 0 0 1 112 15l4 2 1-4a1079 1079 0 0 1 20-79c1-3 0-7-3-11-3-5-11-10-21-14M223 155h38a40 40 0 0 0 25-9l4-3 1-1 3-4v-1l2-4 1-2 1-8V84a28 28 0 0 0-6-17l-3-3c-7-7-17-11-28-11h-44c-10 0-19 3-26 9l-3 3-2 2-1 2c-3 5-5 10-5 15v39l1 6 1 3 1 2v1l1 2 1 1 2 3 1 1 1 2a35 35 0 0 0 10 7c5 2 11 4 18 4z"/></svg>
